<svg width="5" height="5" viewBox="0 0 5 5" fill="none" xmlns="http://www.w3.org/2000/svg">
<g clip-path="url(#clip0_30_284)">
<path d="M2.91667 2.39579L3.64584 2.18746M2.07667 1.78152L0.750943 0.853707C0.71318 0.827283 0.667054 0.815589 0.621263 0.820831C0.575472 0.826072 0.533182 0.847887 0.502368 0.882162C0.471553 0.916436 0.454344 0.9608 0.453985 1.00689C0.453627 1.05298 0.470144 1.0976 0.500422 1.13235L0.729172 1.39475L1.27417 2.086C1.2982 2.11647 1.31325 2.15304 1.31761 2.1916C1.32197 2.23015 1.31548 2.26916 1.29886 2.30423L0.557609 3.86912C0.542574 3.90087 0.535811 3.93591 0.53795 3.97097C0.540088 4.00604 0.551059 4.03999 0.569842 4.06968C0.588625 4.09937 0.61461 4.12382 0.645381 4.14077C0.676152 4.15772 0.710709 4.16661 0.745838 4.16662H1.59605C1.64502 4.16664 1.69244 4.14939 1.72996 4.11792C1.76749 4.08645 1.79273 4.04277 1.80126 3.99454L2.08334 2.39579M2.08334 2.39579L2.16178 1.99183C2.16945 1.95229 2.1655 1.91136 2.15039 1.87402C2.13529 1.83667 2.10968 1.8045 2.07667 1.78141M2.08334 2.39579L1.35417 2.18746M2.91115 1.75287L4.24553 0.805998C4.28351 0.779087 4.33002 0.766986 4.3763 0.771973C4.42258 0.77696 4.46544 0.798691 4.49682 0.833076C4.52819 0.867461 4.54592 0.912128 4.54666 0.958672C4.5474 1.00522 4.5311 1.05042 4.50084 1.08579L4.27084 1.35412L3.72125 2.08694C3.6985 2.11729 3.68447 2.15328 3.68067 2.19102C3.67687 2.22876 3.68345 2.26682 3.69969 2.3011L4.4424 3.86912C4.45744 3.90087 4.4642 3.93591 4.46206 3.97097C4.45992 4.00604 4.44895 4.03999 4.43017 4.06968C4.41138 4.09937 4.3854 4.12382 4.35463 4.14077C4.32386 4.15772 4.2893 4.16661 4.25417 4.16662H3.39959C3.3515 4.16661 3.3049 4.14997 3.26769 4.11952C3.23047 4.08906 3.20494 4.04667 3.19542 3.99954L2.86667 2.37225L2.82438 1.94319C2.82078 1.90663 2.82691 1.86977 2.84215 1.83635C2.85739 1.80293 2.88119 1.77413 2.91115 1.75287Z" stroke="#545454" stroke-width="0.416667" stroke-linecap="round" stroke-linejoin="round"/>
</g>
<defs>
<clipPath id="clip0_30_284">
<rect width="5" height="5" fill="white"/>
</clipPath>
</defs>
</svg>
