<svg width="6" height="6" viewBox="0 0 6 6" fill="none" xmlns="http://www.w3.org/2000/svg">
<g clip-path="url(#clip0_1_39)">
<path d="M3 0.5C4.38075 0.5 5.5 1.61925 5.5 3C5.5 4.38075 4.38075 5.5 3 5.5C1.61925 5.5 0.5 4.38075 0.5 3C0.5 1.61925 1.61925 0.5 3 0.5ZM3 1.5C2.9337 1.5 2.87011 1.52634 2.82322 1.57322C2.77634 1.62011 2.75 1.6837 2.75 1.75V3C2.75001 3.0663 2.77636 3.12988 2.82325 3.17675L3.57325 3.92675C3.6204 3.97229 3.68355 3.99749 3.7491 3.99692C3.81465 3.99635 3.87735 3.97006 3.9237 3.9237C3.97006 3.87735 3.99635 3.81465 3.99692 3.7491C3.99749 3.68355 3.97229 3.6204 3.92675 3.57325L3.25 2.8965V1.75C3.25 1.6837 3.22366 1.62011 3.17678 1.57322C3.12989 1.52634 3.0663 1.5 3 1.5Z" fill="white"/>
</g>
<defs>
<clipPath id="clip0_1_39">
<rect width="6" height="6" fill="white"/>
</clipPath>
</defs>
</svg>
