<svg width="10" height="10" viewBox="0 0 10 10" fill="none" xmlns="http://www.w3.org/2000/svg">
<path d="M1.47835 8.72415H8.52002C8.57527 8.72415 8.62826 8.70221 8.66733 8.66314C8.7064 8.62407 8.72835 8.57107 8.72835 8.51582C8.72835 8.46057 8.7064 8.40758 8.66733 8.36851C8.62826 8.32944 8.57527 8.30749 8.52002 8.30749H1.47835C1.4231 8.30749 1.37011 8.32944 1.33104 8.36851C1.29197 8.40758 1.27002 8.46057 1.27002 8.51582C1.27002 8.57107 1.29197 8.62407 1.33104 8.66314C1.37011 8.70221 1.4231 8.72415 1.47835 8.72415ZM4.04585 7.15832C4.22185 7.10907 4.38244 7.01587 4.51252 6.88749L8.48752 2.91249C8.62364 2.77583 8.70007 2.5908 8.70007 2.39791C8.70007 2.20502 8.62364 2.01998 8.48752 1.88332L8.09585 1.49582C7.95725 1.36343 7.77295 1.28955 7.58127 1.28955C7.38959 1.28955 7.20529 1.36343 7.06669 1.49582L3.09169 5.46665C2.96308 5.59588 2.87106 5.75691 2.82502 5.93332L2.51669 7.08332C2.50206 7.13585 2.50168 7.19133 2.51559 7.24406C2.52951 7.29678 2.55721 7.34485 2.59585 7.38332C2.65483 7.4413 2.73399 7.47416 2.81669 7.47499L4.04585 7.15832ZM4.21669 6.59165C4.13987 6.66986 4.04345 6.72598 3.93752 6.75415L3.53335 6.86249L3.11669 6.44582L3.22502 6.04166C3.25416 5.93613 3.31015 5.83995 3.38752 5.76249L3.54585 5.60832L4.37502 6.43749L4.21669 6.59165ZM4.67085 6.14165L3.84169 5.31249L6.64585 2.50832L7.47502 3.33749L4.67085 6.14165ZM8.19169 2.62082L7.77085 3.04166L6.94169 2.21249L7.36252 1.78749C7.39148 1.75841 7.42589 1.73534 7.46379 1.7196C7.50168 1.70385 7.54232 1.69575 7.58335 1.69575C7.62439 1.69575 7.66502 1.70385 7.70292 1.7196C7.74081 1.73534 7.77523 1.75841 7.80419 1.78749L8.19169 2.17916C8.2498 2.23796 8.28239 2.31731 8.28239 2.39999C8.28239 2.48267 8.2498 2.56201 8.19169 2.62082Z" fill="#2A2626"/>
</svg>
