<svg width="36" height="36" viewBox="0 0 36 36" fill="none" xmlns="http://www.w3.org/2000/svg">
<path fill-rule="evenodd" clip-rule="evenodd" d="M31.65 12.006C31.5675 12 31.476 12 31.38 12H27.5925C24.4905 12 21.837 14.442 21.837 17.625C21.837 20.808 24.492 23.25 27.5925 23.25H31.38C31.476 23.25 31.5675 23.25 31.653 23.244C32.2905 23.2056 32.8924 22.9366 33.3463 22.4874C33.8003 22.0381 34.0754 21.4391 34.1205 20.802C34.1265 20.712 34.1265 20.6145 34.1265 20.5245V14.7255C34.1265 14.6355 34.1265 14.538 34.1205 14.448C34.0754 13.8109 33.8003 13.2119 33.3463 12.7626C32.8924 12.3134 32.2905 12.0444 31.653 12.006M27.261 19.125C28.059 19.125 28.7055 18.453 28.7055 17.625C28.7055 16.797 28.059 16.125 27.261 16.125C26.4615 16.125 25.815 16.797 25.815 17.625C25.815 18.453 26.4615 19.125 27.261 19.125Z" fill="#545454"/>
<path fill-rule="evenodd" clip-rule="evenodd" d="M31.377 25.5C31.4289 25.4979 31.4805 25.5081 31.5277 25.5297C31.5748 25.5513 31.6163 25.5838 31.6486 25.6244C31.6809 25.665 31.7031 25.7127 31.7135 25.7635C31.7239 25.8144 31.7222 25.8669 31.7085 25.917C31.4085 26.985 30.93 27.897 30.1635 28.662C29.04 29.787 27.6165 30.2835 25.8585 30.5205C24.1485 30.75 21.966 30.75 19.209 30.75H16.041C13.284 30.75 11.1 30.75 9.3915 30.5205C7.6335 30.2835 6.21 29.7855 5.0865 28.6635C3.9645 27.54 3.4665 26.1165 3.2295 24.3585C3 22.6485 3 20.466 3 17.709V17.541C3 14.784 3 12.6 3.2295 10.89C3.4665 9.132 3.9645 7.7085 5.0865 6.585C6.21 5.463 7.6335 4.965 9.3915 4.728C11.1015 4.5 13.284 4.5 16.041 4.5H19.209C21.966 4.5 24.15 4.5 25.8585 4.7295C27.6165 4.9665 29.04 5.4645 30.1635 6.5865C30.93 7.3545 31.4085 8.265 31.7085 9.333C31.7222 9.38305 31.7239 9.43564 31.7135 9.48648C31.7031 9.53732 31.6809 9.58499 31.6486 9.62562C31.6163 9.66625 31.5748 9.69868 31.5277 9.72029C31.4805 9.74191 31.4289 9.75208 31.377 9.75H27.591C23.3355 9.75 19.5855 13.11 19.5855 17.625C19.5855 22.14 23.3355 25.5 27.591 25.5H31.377ZM8.625 10.5C8.32663 10.5 8.04048 10.6185 7.8295 10.8295C7.61853 11.0405 7.5 11.3266 7.5 11.625C7.5 11.9234 7.61853 12.2095 7.8295 12.4205C8.04048 12.6315 8.32663 12.75 8.625 12.75H14.625C14.9234 12.75 15.2095 12.6315 15.4205 12.4205C15.6315 12.2095 15.75 11.9234 15.75 11.625C15.75 11.3266 15.6315 11.0405 15.4205 10.8295C15.2095 10.6185 14.9234 10.5 14.625 10.5H8.625Z" fill="#545454"/>
</svg>
