<svg width="20" height="20" viewBox="0 0 20 20" fill="none" xmlns="http://www.w3.org/2000/svg">
<path d="M17.4092 1.67166L17.4975 1.66666L17.6058 1.67332L17.6808 1.68666L17.7833 1.71582L17.8725 1.75416L17.9558 1.80166L18.0308 1.85749L18.0992 1.91999L18.1425 1.96916L18.2108 2.06582L18.2542 2.14582C18.2933 2.22916 18.3183 2.31749 18.3292 2.40916L18.3333 2.49749C18.3333 2.55999 18.3267 2.62166 18.3133 2.68082L18.2842 2.78332L12.8408 17.8475C12.7376 18.0721 12.5722 18.2624 12.364 18.3958C12.1559 18.5292 11.9139 18.6001 11.6667 18.6C11.444 18.6007 11.225 18.5437 11.0309 18.4346C10.8368 18.3255 10.6743 18.1681 10.5592 17.9775L10.505 17.8717L7.71166 12.2867L2.15333 9.50666C1.94766 9.41259 1.7703 9.26618 1.63897 9.08207C1.50765 8.89795 1.42696 8.68257 1.40499 8.45749L1.39999 8.33332C1.39999 7.86666 1.65083 7.43999 2.10083 7.19166L2.21749 7.13332L17.2317 1.71166L17.32 1.68666L17.4092 1.67166Z" fill="#F24E1E"/>
</svg>
