<svg width="9" height="9" viewBox="0 0 9 9" fill="none" xmlns="http://www.w3.org/2000/svg">
<g clip-path="url(#clip0_30_290)">
<path d="M8.4 0.6H0.6V0H8.4V0.6ZM0.606 1.4412C0.619588 1.37322 0.656303 1.31204 0.709901 1.26807C0.763499 1.22409 0.830672 1.20004 0.9 1.2H8.1C8.16933 1.20004 8.2365 1.22409 8.2901 1.26807C8.3437 1.31204 8.38041 1.37322 8.394 1.4412L8.994 4.4412C9.0027 4.48471 9.00163 4.5296 8.99089 4.57265C8.98015 4.61569 8.95999 4.65582 8.93187 4.69014C8.90375 4.72446 8.86837 4.75211 8.82827 4.77111C8.78818 4.79011 8.74437 4.79997 8.7 4.8H0.3C0.255633 4.79997 0.211824 4.79011 0.171729 4.77111C0.131634 4.75211 0.0962524 4.72446 0.0681323 4.69014C0.0400123 4.65582 0.0198541 4.61569 0.00911016 4.57265C-0.00163378 4.5296 -0.00269601 4.48471 0.006 4.4412L0.606 1.4412ZM0.6 5.4V8.4H0V9H9V8.4H8.4V5.4H7.2V6.6H1.8V5.4H0.6Z" fill="#545454"/>
<path d="M2.39999 5.40002H6.59999V6.00002H2.39999V5.40002Z" fill="#545454"/>
</g>
<defs>
<clipPath id="clip0_30_290">
<rect width="9" height="9" fill="white"/>
</clipPath>
</defs>
</svg>
