<svg width="16" height="16" viewBox="0 0 16 16" fill="none" xmlns="http://www.w3.org/2000/svg">
<path d="M8 13.6C8.88366 13.6 9.6 12.8837 9.6 12C9.6 11.1164 8.88366 10.4 8 10.4C7.11635 10.4 6.4 11.1164 6.4 12C6.4 12.8837 7.11635 13.6 8 13.6Z" fill="#545454"/>
<path d="M8 9.60002C8.88366 9.60002 9.6 8.88368 9.6 8.00002C9.6 7.11637 8.88366 6.40002 8 6.40002C7.11635 6.40002 6.4 7.11637 6.4 8.00002C6.4 8.88368 7.11635 9.60002 8 9.60002Z" fill="#545454"/>
<path d="M8 5.60002C8.88366 5.60002 9.6 4.88368 9.6 4.00002C9.6 3.11637 8.88366 2.40002 8 2.40002C7.11635 2.40002 6.4 3.11637 6.4 4.00002C6.4 4.88368 7.11635 5.60002 8 5.60002Z" fill="#545454"/>
</svg>
