<svg width="18" height="18" viewBox="0 0 18 18" fill="none" xmlns="http://www.w3.org/2000/svg">
<path d="M2.78445 0C1.5672 0 0.348436 0.919393 0.348436 2.75818L2.78445 7.66161L5.21894 2.75818C5.21894 0.919393 4.00169 0 2.78445 0ZM13.5228 1.49401C13.2604 1.50512 13.0055 1.55531 12.7925 1.60128L12.937 2.2755C13.15 2.22761 13.3707 2.19735 13.5571 2.18356L13.5228 1.49401ZM2.78445 1.53232C3.45773 1.53232 4.00169 2.08128 4.00169 2.75818C4.00169 3.43623 3.45773 3.98404 2.78445 3.98404C2.1123 3.98404 1.5672 3.43623 1.5672 2.75818C1.5672 2.08128 2.1123 1.53232 2.78445 1.53232ZM14.2798 1.53998L14.1657 2.21804C14.3521 2.25749 14.5385 2.30691 14.702 2.40575L15.033 1.80048C14.8009 1.67598 14.5423 1.56412 14.2798 1.53998ZM12.0926 1.79665C11.8605 1.88782 11.6285 1.96942 11.4307 2.04948L11.7008 2.68156C11.91 2.59192 12.1306 2.51377 12.317 2.44788L12.0926 1.79665ZM15.6568 2.30997L15.1357 2.75818C15.2726 2.91601 15.3791 3.11061 15.4628 3.26768L16.0752 2.95738C15.9459 2.70646 15.8318 2.51646 15.6568 2.30997ZM10.7954 2.34445C10.5634 2.46359 10.3732 2.5697 10.1678 2.6739L10.5025 3.27917C10.7003 3.16424 10.9172 3.05315 11.0921 2.96504L10.7954 2.34445ZM9.56678 3.03017C9.36517 3.14892 9.16737 3.26768 8.97337 3.39792L9.34615 3.97254C9.53255 3.84996 9.72654 3.73503 9.91674 3.62011L9.56678 3.03017ZM16.3111 3.71588C16.0866 3.75419 15.8584 3.781 15.634 3.80782C15.6492 3.99936 15.6378 4.20622 15.5997 4.36712L16.2654 4.52418C16.3035 4.24836 16.3377 3.96488 16.3111 3.71588ZM8.39518 3.781C8.20499 3.91125 8.0186 4.04533 7.8284 4.17558L8.22401 4.7387C8.40659 4.60463 8.59298 4.47821 8.77937 4.34796L8.39518 3.781ZM7.26923 4.5893C7.07904 4.72721 6.88123 4.88044 6.71767 5.00686L7.13229 5.55467C7.3415 5.40143 7.48605 5.28651 7.67625 5.14477L7.26923 4.5893ZM15.3715 4.89577C15.2574 5.07198 15.1243 5.2482 14.9911 5.38228L15.4894 5.86113C15.653 5.66576 15.828 5.46656 15.9497 5.26736L15.3715 4.89577ZM6.17371 5.43591C5.98732 5.58148 5.80093 5.73088 5.63736 5.86879L6.07101 6.40127C6.24979 6.25187 6.43237 6.09864 6.59975 5.97605L6.17371 5.43591ZM14.5194 5.82282C14.3445 5.96456 14.1619 6.10247 13.9945 6.21739L14.3863 6.78435C14.5879 6.64645 14.7857 6.49704 14.9569 6.35913L14.5194 5.82282ZM5.10862 6.317C4.92984 6.46257 4.75866 6.6158 4.58368 6.7652L5.02874 7.29002C5.19992 7.14062 5.37109 6.99122 5.54607 6.84565L5.10862 6.317ZM13.4353 6.58515C13.2413 6.70008 13.0397 6.81883 12.8571 6.91843L13.1843 7.52753C13.3897 7.40111 13.6217 7.29002 13.7929 7.1751L13.4353 6.58515ZM4.06255 7.22107C3.89138 7.3743 3.72401 7.52753 3.55283 7.68459L4.0131 8.19792C4.18047 8.04469 4.35165 7.89146 4.51902 7.73822L4.06255 7.22107ZM12.2599 7.23639C12.0583 7.33599 11.8567 7.43942 11.6551 7.53902L11.948 8.15961C12.1839 8.04469 12.3588 7.94892 12.5719 7.84932L12.2599 7.23639ZM11.0427 7.82633C10.8335 7.9221 10.6319 8.01404 10.4188 8.10215L10.6965 8.73423C10.9057 8.64229 11.115 8.54652 11.3242 8.45075L11.0427 7.82633ZM3.05072 8.15961C2.85672 8.332 2.72168 8.46608 2.5448 8.63846L3.02789 9.13647C3.20668 8.96408 3.35123 8.81468 3.5186 8.66911L3.05072 8.15961ZM9.79501 8.3818C9.5858 8.46991 9.37659 8.56185 9.16737 8.64996L9.43364 9.2897C9.64666 9.20159 9.85588 9.10965 10.0651 9.01771L9.79501 8.3818ZM8.53593 8.91811C8.32671 9.01005 8.1175 9.10199 7.90448 9.18627L8.17075 9.82601C8.37997 9.7379 8.59298 9.64596 8.8022 9.55786L8.53593 8.91811ZM15.5655 9.19393C14.3483 9.19393 13.131 10.1133 13.131 11.9521L15.5655 16.8555L18 11.9521C18 10.1133 16.7828 9.19393 15.5655 9.19393ZM7.27304 9.45442C7.05621 9.55402 6.82798 9.64596 6.64159 9.72641L6.91167 10.3623C7.1361 10.2666 7.34911 10.1746 7.53931 10.0903L7.27304 9.45442ZM6.01014 9.9984C5.80473 10.0942 5.56509 10.2014 5.3825 10.2857L5.66399 10.914C5.88842 10.8144 6.08622 10.7148 6.28402 10.6305L6.01014 9.9984ZM4.75486 10.573C4.54184 10.6765 4.32122 10.7837 4.13102 10.8795L4.43914 11.4962C4.64455 11.389 4.85757 11.2894 5.04396 11.1974L4.75486 10.573ZM15.5655 10.7263C16.2388 10.7263 16.7828 11.2741 16.7828 11.9521C16.7828 12.6302 16.2388 13.178 15.5655 13.178C14.8922 13.178 14.3483 12.6302 14.3483 11.9521C14.3483 11.2741 14.8922 10.7263 15.5655 10.7263ZM3.51479 11.1974C3.31319 11.3085 3.11158 11.4235 2.90617 11.5422L3.24852 12.1398C3.44252 12.0249 3.64032 11.9176 3.83812 11.8104L3.51479 11.1974ZM2.30896 11.9138C2.09556 12.0364 1.88939 12.2011 1.71175 12.3199L2.12637 12.8715C2.31543 12.7336 2.51893 12.5919 2.68174 12.4923L2.30896 11.9138ZM1.1716 12.7796C0.989011 12.9481 0.809087 13.1435 0.669484 13.3082L1.19062 13.7564C1.33707 13.5764 1.4645 13.4423 1.63567 13.2891L1.1716 12.7796ZM9.45647 12.8294L9.51733 13.5151C9.71513 13.4806 9.91293 13.5036 10.1107 13.5342L10.2287 12.8562C9.9776 12.8179 9.71133 12.7911 9.45647 12.8294ZM8.04142 13.2124L8.30009 13.8522C8.49789 13.7641 8.7033 13.6951 8.91251 13.63C8.84024 13.4116 8.78698 13.1895 8.72992 12.9673C8.49028 13.0362 8.25063 13.1282 8.04142 13.2124ZM10.9894 13.178L10.6014 13.7449C10.7612 13.8637 10.9172 13.9901 11.0427 14.1472L11.56 13.6951C11.366 13.4959 11.2177 13.3082 10.9894 13.178ZM7.39476 13.5227C7.18555 13.63 6.98394 13.7526 6.78233 13.8713L7.12849 14.4651C7.32629 14.3579 7.52029 14.2314 7.71429 14.128L7.39476 13.5227ZM0.251437 13.9441C0.13656 14.1931 0.0433643 14.4613 0 14.6988L0.673288 14.8175C0.71437 14.5992 0.773331 14.4421 0.859679 14.2544C0.650845 14.1625 0.451522 14.0514 0.251437 13.9441ZM6.18893 14.2429C5.99493 14.3693 5.80473 14.4958 5.61454 14.626L5.99493 15.2006C6.18512 15.0742 6.37151 14.944 6.56171 14.8175L6.18893 14.2429ZM11.9975 14.2889L11.4231 14.6643C11.5448 14.8482 11.6627 15.0397 11.773 15.2351L12.3664 14.8903C12.2333 14.6758 12.1382 14.4843 11.9975 14.2889ZM5.04776 15.0168C4.85757 15.1432 4.66737 15.2658 4.48098 15.3998L4.86137 15.9745C5.04396 15.8404 5.23795 15.714 5.43195 15.5837L5.04776 15.0168ZM0.680896 15.3807C0.460651 15.4266 0.238504 15.465 0.0171175 15.5071C0.0570584 15.7753 0.163948 16.0357 0.260566 16.2426L0.878698 15.9438C0.796154 15.7523 0.717794 15.5531 0.680896 15.3807ZM12.705 15.4879L12.1116 15.8327C12.2295 16.0396 12.3664 16.2618 12.4768 16.438L13.0511 16.0664C12.9218 15.8634 12.8115 15.6718 12.705 15.4879ZM3.918 15.7753C3.72781 15.894 3.54142 16.0089 3.34362 16.12L3.68216 16.7215C3.88377 16.6027 4.08538 16.4839 4.27937 16.3575L3.918 15.7753ZM1.20583 16.3997L0.737954 16.9053C0.94945 17.1084 1.2104 17.2424 1.49493 17.3037L1.64708 16.6334C1.47819 16.5989 1.32033 16.5146 1.20583 16.3997ZM2.76543 16.4112C2.57485 16.4993 2.37705 16.5682 2.17202 16.6104L2.32798 17.2846C2.57219 17.2348 2.80194 17.1428 3.0317 17.0471L2.76543 16.4112ZM13.4277 16.595L12.899 17.0279C13.0626 17.231 13.2642 17.4263 13.4391 17.5642L13.8614 17.0203C13.694 16.89 13.5494 16.733 13.4277 16.595ZM14.3445 17.2654L14.1733 17.9358C14.4738 17.9971 14.6982 18.0163 14.9797 17.9856L14.896 17.2999C14.7096 17.3306 14.5271 17.3114 14.3445 17.2654Z" fill="#545454"/>
</svg>
