<svg width="20" height="20" viewBox="0 0 20 20" fill="none" xmlns="http://www.w3.org/2000/svg">
<path fill-rule="evenodd" clip-rule="evenodd" d="M4.16667 9.16667C4.16667 8.51006 4.296 7.85988 4.54727 7.25325C4.79854 6.64662 5.16684 6.09543 5.63113 5.63113C6.09543 5.16684 6.64662 4.79854 7.25325 4.54727C7.85988 4.296 8.51006 4.16667 9.16667 4.16667C9.82328 4.16667 10.4735 4.296 11.0801 4.54727C11.6867 4.79854 12.2379 5.16684 12.7022 5.63113C13.1665 6.09543 13.5348 6.64662 13.7861 7.25325C14.0373 7.85988 14.1667 8.51006 14.1667 9.16667C14.1667 10.4927 13.6399 11.7645 12.7022 12.7022C11.7645 13.6399 10.4927 14.1667 9.16667 14.1667C7.84058 14.1667 6.56881 13.6399 5.63113 12.7022C4.69345 11.7645 4.16667 10.4927 4.16667 9.16667ZM9.16667 2.5C8.10572 2.50015 7.06012 2.75352 6.11679 3.23903C5.17345 3.72455 4.35961 4.4282 3.7429 5.2915C3.1262 6.15481 2.72444 7.15283 2.57103 8.20263C2.41761 9.25243 2.51695 10.3237 2.86081 11.3274C3.20467 12.331 3.78311 13.2382 4.54806 13.9733C5.313 14.7085 6.24236 15.2505 7.2589 15.5542C8.27543 15.858 9.34979 15.9148 10.3927 15.7198C11.4356 15.5249 12.4168 15.0838 13.255 14.4333L16.0775 17.2558C16.2347 17.4076 16.4452 17.4916 16.6637 17.4897C16.8822 17.4878 17.0912 17.4002 17.2457 17.2457C17.4002 17.0912 17.4878 16.8822 17.4897 16.6637C17.4916 16.4452 17.4076 16.2347 17.2558 16.0775L14.4333 13.255C15.1984 12.2695 15.6716 11.0892 15.7992 9.84814C15.9267 8.60709 15.7034 7.35516 15.1547 6.23471C14.6061 5.11425 13.754 4.17024 12.6954 3.51002C11.6368 2.8498 10.4142 2.49986 9.16667 2.5ZM9.16667 12.5C10.0507 12.5 10.8986 12.1488 11.5237 11.5237C12.1488 10.8986 12.5 10.0507 12.5 9.16667C12.5 8.28261 12.1488 7.43476 11.5237 6.80964C10.8986 6.18452 10.0507 5.83333 9.16667 5.83333C8.28261 5.83333 7.43477 6.18452 6.80964 6.80964C6.18452 7.43476 5.83333 8.28261 5.83333 9.16667C5.83333 10.0507 6.18452 10.8986 6.80964 11.5237C7.43477 12.1488 8.28261 12.5 9.16667 12.5Z" fill="#545454"/>
</svg>
