<svg width="36" height="36" viewBox="0 0 36 36" fill="none" xmlns="http://www.w3.org/2000/svg">
<path d="M10.8 8.96936C10.3226 8.96936 9.86477 9.159 9.52721 9.49657C9.18964 9.83413 9 10.292 9 10.7694C9 11.2467 9.18964 11.7046 9.52721 12.0422C9.86477 12.3797 10.3226 12.5694 10.8 12.5694H25.2C25.6774 12.5694 26.1352 12.3797 26.4728 12.0422C26.8104 11.7046 27 11.2467 27 10.7694C27 10.292 26.8104 9.83413 26.4728 9.49657C26.1352 9.159 25.6774 8.96936 25.2 8.96936H10.8ZM9 18C9 17.5226 9.18964 17.0647 9.52721 16.7272C9.86477 16.3896 10.3226 16.2 10.8 16.2H25.2C25.6774 16.2 26.1352 16.3896 26.4728 16.7272C26.8104 17.0647 27 17.5226 27 18C27 18.4773 26.8104 18.9352 26.4728 19.2728C26.1352 19.6103 25.6774 19.8 25.2 19.8H10.8C10.3226 19.8 9.86477 19.6103 9.52721 19.2728C9.18964 18.9352 9 18.4773 9 18ZM10.8 23.4306C10.3226 23.4306 9.86477 23.6202 9.52721 23.9578C9.18964 24.2953 9 24.7532 9 25.2306C9 25.7079 9.18964 26.1658 9.52721 26.5033C9.86477 26.8409 10.3226 27.0306 10.8 27.0306H25.2C25.6774 27.0306 26.1352 26.8409 26.4728 26.5033C26.8104 26.1658 27 25.7079 27 25.2306C27 24.7532 26.8104 24.2953 26.4728 23.9578C26.1352 23.6202 25.6774 23.4306 25.2 23.4306H10.8Z" fill="#6D6363"/>
<path fill-rule="evenodd" clip-rule="evenodd" d="M36 18C36 27.9414 27.9414 36 18 36C8.0586 36 0 27.9414 0 18C0 8.0586 8.0586 0 18 0C27.9414 0 36 8.0586 36 18ZM32.4 18C32.4 21.8191 30.8829 25.4818 28.1823 28.1823C25.4818 30.8829 21.8191 32.4 18 32.4C14.1809 32.4 10.5182 30.8829 7.81766 28.1823C5.11714 25.4818 3.6 21.8191 3.6 18C3.6 14.1809 5.11714 10.5182 7.81766 7.81766C10.5182 5.11714 14.1809 3.6 18 3.6C21.8191 3.6 25.4818 5.11714 28.1823 7.81766C30.8829 10.5182 32.4 14.1809 32.4 18Z" fill="#6D6363"/>
</svg>
