<svg width="10" height="10" viewBox="0 0 10 10" fill="none" xmlns="http://www.w3.org/2000/svg">
<path d="M8.33329 2.91665V8.74998C8.33329 8.86049 8.28939 8.96647 8.21125 9.04461C8.13311 9.12275 8.02713 9.16665 7.91663 9.16665H2.08329C1.97279 9.16665 1.86681 9.12275 1.78866 9.04461C1.71052 8.96647 1.66663 8.86049 1.66663 8.74998V1.24998C1.66663 1.13947 1.71052 1.03349 1.78866 0.955352C1.86681 0.877212 1.97279 0.833313 2.08329 0.833313H6.24996M8.33329 2.91665H6.24996V0.833313M8.33329 2.91665L6.24996 0.833313" stroke="#282828" stroke-width="0.833333" stroke-linecap="round" stroke-linejoin="round"/>
<path d="M5 7.08331C6.03542 7.08331 6.875 5.83331 6.875 5.83331C6.875 5.83331 6.03542 4.58331 5 4.58331C3.96458 4.58331 3.125 5.83331 3.125 5.83331C3.125 5.83331 3.96458 7.08331 5 7.08331Z" stroke="#282828" stroke-width="0.833333" stroke-linejoin="round"/>
<path d="M4.99992 6.24996C5.11043 6.24996 5.21641 6.20606 5.29455 6.12792C5.37269 6.04978 5.41659 5.9438 5.41659 5.83329C5.41659 5.72279 5.37269 5.61681 5.29455 5.53866C5.21641 5.46052 5.11043 5.41663 4.99992 5.41663C4.88941 5.41663 4.78343 5.46052 4.70529 5.53866C4.62715 5.61681 4.58325 5.72279 4.58325 5.83329C4.58325 5.9438 4.62715 6.04978 4.70529 6.12792C4.78343 6.20606 4.88941 6.24996 4.99992 6.24996Z" fill="#545454"/>
</svg>
