<svg width="4" height="7" viewBox="0 0 4 7" fill="none" xmlns="http://www.w3.org/2000/svg">
<path d="M2 3.08156C1.81056 3.08156 1.62888 2.99612 1.49492 2.84404C1.36097 2.69196 1.28571 2.4857 1.28571 2.27063C1.28571 2.05555 1.36097 1.84929 1.49492 1.69721C1.62888 1.54513 1.81056 1.45969 2 1.45969C2.18944 1.45969 2.37112 1.54513 2.50508 1.69721C2.63903 1.84929 2.71429 2.05555 2.71429 2.27063C2.71429 2.37712 2.69581 2.48257 2.65991 2.58096C2.62402 2.67934 2.5714 2.76874 2.50508 2.84404C2.43875 2.91935 2.36001 2.97908 2.27335 3.01983C2.18668 3.06059 2.0938 3.08156 2 3.08156ZM2 0C1.46957 0 0.960859 0.239226 0.585786 0.665051C0.210714 1.09088 0 1.66842 0 2.27063C0 3.97359 2 6.4875 2 6.4875C2 6.4875 4 3.97359 4 2.27063C4 1.66842 3.78929 1.09088 3.41421 0.665051C3.03914 0.239226 2.53043 0 2 0Z" fill="white"/>
</svg>
