<svg width="7" height="7" viewBox="0 0 7 7" fill="none" xmlns="http://www.w3.org/2000/svg">
<g clip-path="url(#clip0_80_110)">
<path d="M2.10178 3.18566C2.21575 3.14519 2.37916 3.11435 2.59506 3.13469C2.60937 3.13604 2.6238 3.13456 2.63753 3.13033C2.65127 3.12611 2.66403 3.11921 2.6751 3.11005C2.68617 3.10089 2.69533 3.08964 2.70205 3.07694C2.70878 3.06424 2.71293 3.05034 2.71428 3.03603C2.71563 3.02173 2.71415 3.0073 2.70992 2.99356C2.7057 2.97983 2.6988 2.96706 2.68964 2.95599C2.68048 2.94492 2.66923 2.93576 2.65653 2.92904C2.64383 2.92232 2.62993 2.91817 2.61562 2.91682C2.36778 2.89363 2.17244 2.92841 2.02828 2.9796C2.01475 2.98442 2.0023 2.99187 1.99165 3.0015C1.981 3.01114 1.97235 3.02278 1.96619 3.03576C1.95376 3.06197 1.95225 3.09205 1.962 3.11938C1.97175 3.1467 1.99195 3.16904 2.01816 3.18147C2.04438 3.1939 2.07446 3.19541 2.10178 3.18566ZM4.85147 2.9796C4.70709 2.92841 4.51197 2.89363 4.26412 2.91682C4.24982 2.91817 4.23592 2.92232 4.22322 2.92904C4.21052 2.93576 4.19927 2.94492 4.19011 2.95599C4.18094 2.96706 4.17405 2.97983 4.16983 2.99356C4.1656 3.0073 4.16412 3.02173 4.16547 3.03603C4.16682 3.05034 4.17097 3.06424 4.1777 3.07694C4.18442 3.08964 4.19357 3.10089 4.20465 3.11005C4.21572 3.11921 4.22848 3.12611 4.24222 3.13033C4.25595 3.13456 4.27038 3.13604 4.28469 3.13469C4.50059 3.11435 4.664 3.14519 4.77797 3.18566C4.80529 3.19541 4.83537 3.1939 4.86159 3.18147C4.8878 3.16904 4.908 3.1467 4.91775 3.11938C4.9275 3.09205 4.92599 3.06197 4.91356 3.03576C4.90113 3.00955 4.87879 2.98934 4.85147 2.9796ZM2.45003 3.39719C2.13284 3.39719 1.86597 3.61594 1.79159 3.90907C1.76972 3.99219 1.83534 4.07313 1.92284 4.07313H2.13241C2.11514 4.00887 2.11288 3.94151 2.12579 3.87624C2.13869 3.81097 2.16643 3.74953 2.20685 3.69668C2.24727 3.64383 2.29929 3.60098 2.3589 3.57143C2.41852 3.54188 2.48412 3.52642 2.55066 3.52625C2.61721 3.52639 2.68284 3.54182 2.74248 3.57136C2.80212 3.60089 2.85417 3.64374 2.89462 3.6966C2.93506 3.74945 2.96282 3.8109 2.97573 3.87618C2.98865 3.94147 2.98639 4.00885 2.96912 4.07313H3.00347C3.07347 4.07313 3.12816 4.00969 3.11503 3.94188C3.08446 3.7881 3.00144 3.64971 2.88015 3.55036C2.75885 3.45101 2.60682 3.39687 2.45003 3.39719ZM4.55441 3.39719C4.87159 3.39719 5.13847 3.61594 5.21284 3.90907C5.23472 3.99219 5.16909 4.07313 5.08159 4.07313H4.87203C4.88929 4.00887 4.89156 3.94151 4.87865 3.87624C4.86574 3.81097 4.83801 3.74953 4.79759 3.69668C4.75717 3.64383 4.70515 3.60098 4.64553 3.57143C4.58592 3.54188 4.52032 3.52642 4.45378 3.52625C4.38723 3.52639 4.3216 3.54182 4.26196 3.57136C4.20232 3.60089 4.15026 3.64374 4.10982 3.6966C4.06937 3.74945 4.04162 3.8109 4.0287 3.87618C4.01578 3.94147 4.01805 4.00885 4.03531 4.07313H4.00097C3.93097 4.07313 3.87628 4.00969 3.88941 3.94188C3.91997 3.7881 4.003 3.64971 4.12429 3.55036C4.24559 3.45101 4.39762 3.39687 4.55441 3.39719Z" fill="#151010"/>
<path d="M4.25015 3.81915C4.2217 3.86037 4.20651 3.90929 4.20662 3.95937C4.20662 4.00093 4.21756 4.04031 4.23506 4.07531H4.67256C4.69635 4.03093 4.706 3.98034 4.70023 3.93032C4.69445 3.8803 4.67353 3.83324 4.64026 3.79545C4.60699 3.75765 4.56296 3.73093 4.51407 3.71887C4.46519 3.7068 4.41378 3.70996 4.36675 3.72793C4.37609 3.73501 4.38368 3.74414 4.38894 3.75462C4.3942 3.7651 4.39698 3.77664 4.39707 3.78836C4.39716 3.80009 4.39456 3.81167 4.38947 3.82223C4.38437 3.83279 4.37692 3.84203 4.36769 3.84926C4.35845 3.85648 4.34769 3.86149 4.33621 3.86389C4.32474 3.8663 4.31287 3.86603 4.30151 3.86313C4.29016 3.86022 4.27962 3.85474 4.27072 3.84712C4.26181 3.83949 4.25478 3.82992 4.25015 3.81915ZM2.79787 3.95937C2.79797 3.91842 2.78789 3.87809 2.76854 3.84201C2.74918 3.80593 2.72116 3.77522 2.68699 3.75266C2.65282 3.7301 2.61358 3.71638 2.57279 3.71275C2.53201 3.70913 2.49096 3.71569 2.45334 3.73187C2.46497 3.74219 2.47317 3.75582 2.47684 3.77093C2.48052 3.78603 2.47949 3.8019 2.4739 3.81641C2.46831 3.83092 2.45843 3.84338 2.44557 3.85212C2.4327 3.86085 2.41748 3.86546 2.40193 3.86531C2.38949 3.86532 2.37723 3.8623 2.36621 3.85651C2.35519 3.85071 2.34576 3.84232 2.33872 3.83206C2.3167 3.86858 2.30451 3.91017 2.30332 3.95279C2.30213 3.99541 2.31199 4.03762 2.33193 4.07531H2.76943C2.78693 4.04031 2.79787 4.00093 2.79787 3.95937ZM3.49853 4.8125C3.64728 4.8125 3.77634 4.73703 3.85509 4.62153C3.92509 4.51718 3.85072 4.375 3.72603 4.375H3.27322C3.14853 4.375 3.07415 4.51718 3.14415 4.62153C3.22072 4.73703 3.35197 4.8125 3.49853 4.8125ZM3.5005 5.06931C3.27083 5.07016 3.04441 5.01513 2.84075 4.90896C2.82662 4.90121 2.8103 4.89844 2.7944 4.9011C2.77851 4.90376 2.76398 4.91169 2.75314 4.92361C2.7423 4.93553 2.73579 4.95076 2.73466 4.96683C2.73353 4.9829 2.73784 4.99889 2.7469 5.01221C2.82793 5.13859 2.93939 5.2426 3.07105 5.31472C3.20272 5.38684 3.35038 5.42476 3.5005 5.425C3.65062 5.42476 3.79828 5.38684 3.92994 5.31472C4.06161 5.2426 4.17306 5.13859 4.25409 5.01221C4.29347 4.95075 4.22565 4.87615 4.16003 4.90896C3.95681 5.01609 3.73021 5.07118 3.5005 5.06931Z" fill="#121111"/>
<path d="M5.49212 1.0338C5.54593 1.15412 5.64262 1.24818 5.76293 1.2963C5.93094 1.36501 6.07401 1.48331 6.17305 1.63543C6.27209 1.78754 6.32239 1.96624 6.31725 2.14768C6.31277 2.36032 6.23274 2.56442 6.0915 2.72343C6.02005 2.80384 5.96969 2.90072 5.94493 3.0054C6.13358 3.07161 6.29586 3.19685 6.40772 3.36255C6.51957 3.52826 6.57505 3.7256 6.56591 3.92531C6.55678 4.12503 6.48352 4.31648 6.35701 4.47129C6.23049 4.62609 6.05746 4.736 5.86356 4.78471C5.65793 5.98937 4.67225 6.78124 3.50106 6.78124C2.32965 6.78124 1.34418 5.98893 1.13856 4.78405C0.945467 4.73508 0.773205 4.6254 0.647142 4.47115C0.52108 4.31691 0.447881 4.12626 0.438326 3.92729C0.428772 3.72831 0.483367 3.53152 0.594071 3.36591C0.704774 3.2003 0.865735 3.07461 1.05325 3.00737L1.04056 2.63155C1.00206 1.68305 1.66334 0.873241 2.55584 0.693428C2.72639 0.535489 2.94806 0.444178 3.18037 0.436178C3.38884 0.429616 3.582 0.490866 3.74322 0.598053C3.8399 0.663678 3.96678 0.663678 4.06347 0.598053C4.22447 0.490866 4.42003 0.429616 4.6285 0.436178C5.01525 0.449303 5.346 0.692335 5.49212 1.0338ZM1.47872 2.64096L1.49665 3.1699C1.49855 3.22448 1.47996 3.2778 1.44455 3.31937C1.40913 3.36094 1.35944 3.38776 1.30525 3.39455C1.18299 3.40988 1.07093 3.47049 0.991201 3.56443C0.911472 3.65837 0.869876 3.77879 0.87463 3.90191C0.879385 4.02503 0.930144 4.14189 1.01688 4.2294C1.10362 4.31691 1.22002 4.36871 1.34309 4.37455C1.39522 4.37702 1.44475 4.39804 1.48274 4.43382C1.52072 4.46961 1.54467 4.51779 1.55025 4.56968C1.66509 5.64199 2.4959 6.34374 3.50106 6.34374C4.50622 6.34374 5.33703 5.64199 5.45187 4.56968C5.45747 4.51768 5.48151 4.46941 5.51963 4.43362C5.55775 4.39782 5.60744 4.37687 5.65968 4.37455C5.78348 4.36898 5.90062 4.31692 5.9877 4.22876C6.07479 4.14061 6.12542 4.02284 6.12948 3.89899C6.13354 3.77514 6.09073 3.65431 6.00961 3.56064C5.92848 3.46697 5.815 3.40735 5.69184 3.39368C5.63655 3.38762 5.58564 3.36072 5.54947 3.31846C5.51331 3.2762 5.4946 3.22174 5.49715 3.16618L5.5175 2.71949C5.43618 2.65923 5.33761 2.62678 5.2364 2.62696H4.12559C3.89957 2.62653 3.67677 2.57328 3.47498 2.47145C3.27319 2.36963 3.098 2.22205 2.96337 2.04049C2.95767 2.03218 2.94936 2.02602 2.93975 2.02299H2.91175C2.9016 2.02551 2.89263 2.03146 2.88637 2.03983C2.88011 2.0482 2.87694 2.05848 2.8774 2.06893V2.44737C2.87764 2.4945 2.85924 2.53982 2.82622 2.57346C2.7932 2.6071 2.74822 2.62633 2.70109 2.62696C2.32309 2.62696 2.00087 2.38633 1.86765 2.04924C1.86436 2.03994 1.85762 2.03226 1.84883 2.02778C1.84004 2.0233 1.82986 2.02237 1.8204 2.02518C1.81264 2.02696 1.80561 2.03104 1.80022 2.0369C1.79483 2.04276 1.79134 2.05011 1.79022 2.05799C1.75587 2.26143 1.66115 2.44955 1.52159 2.59415C1.50672 2.60946 1.49228 2.62521 1.47872 2.64096Z" fill="black"/>
</g>
<defs>
<clipPath id="clip0_80_110">
<rect width="7" height="7" fill="white"/>
</clipPath>
</defs>
</svg>
