<svg width="36" height="36" viewBox="0 0 36 36" fill="none" xmlns="http://www.w3.org/2000/svg">
<path d="M19.0605 3.43948L32.5605 16.9395C33.5055 17.8845 32.8365 19.5 31.5 19.5H30V28.5C30 29.6935 29.5259 30.8381 28.682 31.682C27.8381 32.5259 26.6935 33 25.5 33H24V22.5C24.0001 21.3522 23.5615 20.2477 22.7741 19.4126C21.9866 18.5775 20.9098 18.0748 19.764 18.0075L19.5 18H16.5C15.3065 18 14.1619 18.4741 13.318 19.318C12.4741 20.1619 12 21.3065 12 22.5V33H10.5C9.30652 33 8.16193 32.5259 7.31802 31.682C6.4741 30.8381 6 29.6935 6 28.5V19.5H4.5C3.165 19.5 2.4945 17.8845 3.4395 16.9395L16.9395 3.43948C17.2208 3.15828 17.6023 3.00031 18 3.00031C18.3977 3.00031 18.7792 3.15828 19.0605 3.43948ZM19.5 21C19.8978 21 20.2794 21.158 20.5607 21.4393C20.842 21.7206 21 22.1022 21 22.5V33H15V22.5C15 22.1326 15.1349 21.778 15.3791 21.5034C15.6232 21.2289 15.9596 21.0535 16.3245 21.0105L16.5 21H19.5Z" fill="#545454"/>
</svg>
