<svg width="12" height="12" viewBox="0 0 12 12" fill="none" xmlns="http://www.w3.org/2000/svg">
<g clip-path="url(#clip0_30_288)">
<path fill-rule="evenodd" clip-rule="evenodd" d="M6.85714 2.57143C6.85714 3.25341 6.58623 3.90747 6.10399 4.3897C5.62175 4.87194 4.9677 5.14286 4.28572 5.14286C3.60373 5.14286 2.94968 4.87194 2.46744 4.3897C1.98521 3.90747 1.71429 3.25341 1.71429 2.57143C1.71429 1.88944 1.98521 1.23539 2.46744 0.753154C2.94968 0.270918 3.60373 0 4.28572 0C4.9677 0 5.62175 0.270918 6.10399 0.753154C6.58623 1.23539 6.85714 1.88944 6.85714 2.57143ZM5.18572 10.7143H0.428573C0.314909 10.7143 0.2059 10.6691 0.125528 10.5888C0.0451548 10.5084 1.85876e-06 10.3994 1.85876e-06 10.2857C-0.000941882 9.27195 0.357515 8.29066 1.01169 7.51621C1.66586 6.74175 2.57339 6.22426 3.57305 6.05568C4.5727 5.8871 5.59975 6.07835 6.47172 6.59544C7.3437 7.11253 8.00414 7.92199 8.33572 8.88L8.27057 8.97429L7.75543 8.628C7.44988 8.40751 7.0802 8.29384 6.70356 8.30455C6.32692 8.31526 5.9643 8.44976 5.67178 8.68725C5.37925 8.92474 5.17312 9.252 5.08526 9.6184C4.9974 9.98481 5.03271 10.37 5.18572 10.7143ZM11.8714 7.88571C11.9737 7.74932 12.0177 7.57787 11.9935 7.40909C11.9694 7.2403 11.8793 7.08801 11.7429 6.98571C11.6065 6.88342 11.435 6.83949 11.2662 6.8636C11.0974 6.88772 10.9452 6.97789 10.8429 7.11429L8.55429 10.4571L7.14 9.50571C7.07246 9.45506 6.99561 9.41821 6.91383 9.39726C6.83205 9.3763 6.74695 9.37167 6.66337 9.3836C6.5798 9.39554 6.4994 9.42383 6.42676 9.46684C6.35411 9.50985 6.29066 9.56675 6.24 9.63429C6.18935 9.70182 6.15249 9.77868 6.13154 9.86046C6.11059 9.94223 6.10595 10.0273 6.11789 10.1109C6.12983 10.1945 6.15811 10.2749 6.20113 10.3475C6.24414 10.4202 6.30104 10.4836 6.36857 10.5343L8.29714 11.8714C8.36468 11.9221 8.44153 11.9589 8.52331 11.9799C8.60509 12.0008 8.6902 12.0055 8.77377 11.9935C8.85735 11.9816 8.93775 11.9533 9.01039 11.9103C9.08303 11.8673 9.14649 11.8104 9.19714 11.7429L11.8714 7.88571Z" fill="#545454"/>
</g>
<defs>
<clipPath id="clip0_30_288">
<rect width="12" height="12" fill="white"/>
</clipPath>
</defs>
</svg>
