<svg width="33" height="33" viewBox="0 0 33 33" fill="none" xmlns="http://www.w3.org/2000/svg">
<path d="M30.9545 16.5L32.7783 13.348C32.9975 12.9688 33.0571 12.518 32.944 12.0948C32.8309 11.6717 32.5544 11.3107 32.1753 11.0914L29.0201 9.26759V5.63322C29.0201 5.19509 28.8461 4.7749 28.5363 4.46509C28.2265 4.15529 27.8063 3.98124 27.3682 3.98124H23.7356L21.9135 0.827599C21.6935 0.449157 21.3332 0.172596 20.9108 0.057774C20.7013 0.000972013 20.4826 -0.0136746 20.2673 0.014683C20.0521 0.0430406 19.8446 0.113839 19.657 0.222973L16.5018 2.04676L13.3466 0.22132C12.9672 0.00226351 12.5163 -0.0570999 12.0931 0.0562888C11.6699 0.169677 11.3091 0.446531 11.0901 0.825947L9.26633 3.98124H5.63373C5.19561 3.98124 4.77544 4.15529 4.46564 4.46509C4.15584 4.7749 3.9818 5.19509 3.9818 5.63322V9.26594L0.826611 11.0897C0.638344 11.198 0.47333 11.3425 0.34105 11.5147C0.20877 11.687 0.11183 11.8837 0.0558015 12.0935C-0.000227289 12.3034 -0.0142413 12.5222 0.0145645 12.7375C0.0433704 12.9528 0.114428 13.1603 0.223656 13.348L2.04739 16.5L0.223656 19.652C0.0055823 20.0315 -0.0535846 20.482 0.0590547 20.905C0.171694 21.328 0.447004 21.6894 0.824959 21.9102L3.98015 23.734V27.3667C3.98015 27.8049 4.15419 28.2251 4.46399 28.5349C4.77379 28.8447 5.19396 29.0187 5.63208 29.0187H9.26633L11.0901 32.174C11.2363 32.424 11.4451 32.6316 11.696 32.7765C11.9468 32.9213 12.231 32.9983 12.5206 33C12.8081 33 13.0939 32.924 13.3483 32.777L16.5001 30.9532L19.6553 32.777C20.0346 32.9957 20.4852 33.0551 20.9083 32.9421C21.3313 32.829 21.6922 32.5528 21.9119 32.174L23.7339 29.0187H27.3665C27.8047 29.0187 28.2248 28.8447 28.5346 28.5349C28.8444 28.2251 29.0185 27.8049 29.0185 27.3667V23.734L32.1737 21.9102C32.3616 21.8016 32.5263 21.657 32.6583 21.4847C32.7904 21.3124 32.8872 21.1158 32.9431 20.9061C32.9991 20.6963 33.0133 20.4776 32.9847 20.2624C32.9561 20.0473 32.8854 19.8398 32.7766 19.652L30.9545 16.5ZM12.3703 8.22353C13.0277 8.22375 13.6581 8.48512 14.1228 8.95014C14.5875 9.41516 14.8484 10.0457 14.8482 10.7032C14.848 11.3606 14.5866 11.991 14.1216 12.4557C13.6566 12.9204 13.0261 13.1814 12.3687 13.1811C11.7113 13.1809 11.0809 12.9196 10.6162 12.4545C10.1515 11.9895 9.89054 11.3589 9.89076 10.7015C9.89098 10.0441 10.1523 9.41369 10.6173 8.94897C11.0824 8.48426 11.7129 8.22331 12.3703 8.22353ZM12.8659 24.0826L10.2228 22.1019L20.1344 8.88598L22.7775 10.8667L12.8659 24.0826ZM20.63 24.7434C20.3045 24.7433 19.9822 24.679 19.6815 24.5544C19.3808 24.4297 19.1076 24.247 18.8775 24.0168C18.6474 23.7865 18.4649 23.5132 18.3404 23.2124C18.216 22.9116 18.152 22.5893 18.1521 22.2638C18.1522 21.9382 18.2164 21.6159 18.3411 21.3152C18.4657 21.0145 18.6484 20.7413 18.8787 20.5112C19.1089 20.2811 19.3822 20.0986 19.683 19.9741C19.9838 19.8497 20.3061 19.7857 20.6316 19.7858C21.289 19.786 21.9194 20.0474 22.3841 20.5124C22.8488 20.9774 23.1097 21.608 23.1095 22.2654C23.1093 22.9228 22.8479 23.5532 22.3829 24.0179C21.9179 24.4826 21.2874 24.7436 20.63 24.7434Z" fill="#545454"/>
</svg>
