<svg width="22" height="22" viewBox="0 0 22 22" fill="none" xmlns="http://www.w3.org/2000/svg">
<g clip-path="url(#clip0_1_132)">
<path d="M11 1.83331C16.0628 1.83331 20.1667 5.93723 20.1667 11C20.1667 16.0627 16.0628 20.1666 11 20.1666C5.93726 20.1666 1.83334 16.0627 1.83334 11C1.83334 5.93723 5.93726 1.83331 11 1.83331ZM11 5.49998C10.7569 5.49998 10.5237 5.59656 10.3518 5.76847C10.1799 5.94037 10.0833 6.17353 10.0833 6.41665V11C10.0834 11.2431 10.18 11.4762 10.3519 11.6481L13.1019 14.3981C13.2748 14.565 13.5064 14.6574 13.7467 14.6553C13.9871 14.6533 14.217 14.5569 14.3869 14.3869C14.5569 14.2169 14.6533 13.987 14.6554 13.7467C14.6575 13.5063 14.5651 13.2748 14.3981 13.1019L11.9167 10.6205V6.41665C11.9167 6.17353 11.8201 5.94037 11.6482 5.76847C11.4763 5.59656 11.2431 5.49998 11 5.49998Z" fill="#545454"/>
</g>
<defs>
<clipPath id="clip0_1_132">
<rect width="22" height="22" fill="white"/>
</clipPath>
</defs>
</svg>
