<svg width="49" height="48" viewBox="0 0 49 48" fill="none" xmlns="http://www.w3.org/2000/svg">
<path d="M33 20C33 22.1217 32.1571 24.1566 30.6569 25.6569C29.1566 27.1571 27.1217 28 25 28C22.8783 28 20.8434 27.1571 19.3431 25.6569C17.8429 24.1566 17 22.1217 17 20C17 17.8783 17.8429 15.8434 19.3431 14.3431C20.8434 12.8429 22.8783 12 25 12C27.1217 12 29.1566 12.8429 30.6569 14.3431C32.1571 15.8434 33 17.8783 33 20Z" fill="black"/>
<path fill-rule="evenodd" clip-rule="evenodd" d="M24.184 43.984C13.517 43.556 5 34.772 5 24C5 12.954 13.954 4 25 4C36.046 4 45 12.954 45 24C45 35.046 36.046 44 25 44C24.9087 44.0006 24.8173 44.0006 24.726 44C24.545 44 24.364 43.994 24.184 43.984ZM12.166 36.62C12.0165 36.1906 11.9656 35.733 12.0171 35.2812C12.0686 34.8294 12.2212 34.395 12.4636 34.0103C12.706 33.6255 13.0319 33.3003 13.4171 33.0588C13.8024 32.8172 14.2371 32.6655 14.689 32.615C22.485 31.752 27.563 31.83 35.321 32.633C35.7735 32.6801 36.2093 32.8299 36.5952 33.0709C36.9811 33.3119 37.3068 33.6378 37.5477 34.0237C37.7886 34.4096 37.9383 34.8455 37.9853 35.298C38.0323 35.7505 37.9754 36.2078 37.819 36.635C41.1439 33.2709 43.006 28.7299 43 24C43 14.059 34.941 6 25 6C15.059 6 7 14.059 7 24C7 28.916 8.971 33.372 12.166 36.62Z" fill="black"/>
</svg>
