<svg width="35" height="35" viewBox="0 0 35 35" fill="none" xmlns="http://www.w3.org/2000/svg">
<g clip-path="url(#clip0_30_250)">
<path d="M4.23938 9.84376C8.46855 2.52001 17.8325 0.0102155 25.1563 4.23938C28.058 5.91454 30.3304 8.49504 31.625 11.5854C32.9197 14.6757 33.1652 18.1053 32.324 21.3485C31.8602 23.135 29.6844 23.6381 28.4477 22.4365L28.3092 22.2906L25.0265 18.5179C23.5638 16.8379 25.0615 14.3033 27.1819 14.6854L27.3758 14.7292L28.1313 14.9246C27.5619 12.5778 26.2319 10.4855 24.3487 8.97387C22.4655 7.46225 20.135 6.61635 17.7207 6.5681C15.3063 6.51985 12.9439 7.27197 11.0018 8.70714C9.05971 10.1423 7.64718 12.1798 6.98451 14.502C6.32183 16.8241 6.44628 19.3003 7.33843 21.5442C8.23058 23.7882 9.84027 25.6739 11.9165 26.9071C13.9926 28.1403 16.4186 28.6518 18.8159 28.3617C21.2133 28.0717 23.4472 26.9964 25.1694 25.3035C25.3742 25.1021 25.6167 24.9429 25.883 24.8352C26.1494 24.7274 26.4343 24.6732 26.7216 24.6756C27.0089 24.6779 27.2929 24.7369 27.5574 24.849C27.8219 24.9611 28.0618 25.1242 28.2632 25.3291C28.4647 25.5339 28.6239 25.7764 28.7316 26.0427C28.8394 26.309 28.8936 26.594 28.8912 26.8813C28.8889 27.1686 28.8299 27.4526 28.7178 27.7171C28.6057 27.9816 28.4425 28.2215 28.2377 28.4229C23.4529 33.1304 15.944 34.2825 9.84376 30.7606C2.52001 26.5315 0.0102155 17.169 4.23938 9.84376ZM17.5 8.02084C18.0436 8.02083 18.5677 8.22319 18.9702 8.5885C19.3727 8.9538 19.6248 9.45587 19.6773 9.99688L19.6875 10.2083V16.5944L22.6917 19.5985C23.09 19.9946 23.3206 20.5288 23.3359 21.0903C23.3511 21.6518 23.1497 22.1977 22.7735 22.6148C22.3972 23.0319 21.875 23.2883 21.3149 23.3308C20.7547 23.3734 20.1997 23.1988 19.7648 22.8433L19.5985 22.6931L15.9527 19.0473C15.5951 18.6897 15.3725 18.2191 15.3227 17.7158L15.3125 17.5V10.2083C15.3125 9.62818 15.543 9.07178 15.9532 8.66154C16.3634 8.25131 16.9198 8.02084 17.5 8.02084Z" fill="#545454"/>
</g>
<defs>
<clipPath id="clip0_30_250">
<rect width="35" height="35" fill="white"/>
</clipPath>
</defs>
</svg>
